<svg width="20" height="20" viewBox="0 0 20 20" fill="none" xmlns="http://www.w3.org/2000/svg">
<g clip-path="url(#clip0_1064_1730)">
<path d="M15.8307 8.33594V10.0026C15.8307 11.5497 15.2161 13.0334 14.1222 14.1274C13.0282 15.2214 11.5445 15.8359 9.9974 15.8359M9.9974 15.8359C8.4503 15.8359 6.96657 15.2214 5.87261 14.1274C4.77864 13.0334 4.16406 11.5497 4.16406 10.0026V8.33594M9.9974 15.8359V19.1693M6.66406 19.1693H13.3307M9.9974 0.835938C9.33435 0.835938 8.69847 1.09933 8.22963 1.56817C7.76079 2.03701 7.4974 2.6729 7.4974 3.33594V10.0026C7.4974 10.6656 7.76079 11.3015 8.22963 11.7704C8.69847 12.2392 9.33435 12.5026 9.9974 12.5026C10.6604 12.5026 11.2963 12.2392 11.7652 11.7704C12.234 11.3015 12.4974 10.6656 12.4974 10.0026V3.33594C12.4974 2.6729 12.234 2.03701 11.7652 1.56817C11.2963 1.09933 10.6604 0.835938 9.9974 0.835938Z" stroke="white" stroke-width="2" stroke-linecap="round" stroke-linejoin="round"/>
</g>
<defs>
<clipPath id="clip0_1064_1730">
<rect width="20" height="20" fill="white"/>
</clipPath>
</defs>
</svg>
