<svg width="18" height="18" viewBox="0 0 18 18" fill="none" xmlns="http://www.w3.org/2000/svg">
<path d="M8.625 16.3125C4.3875 16.3125 0.9375 12.8625 0.9375 8.625C0.9375 4.3875 4.3875 0.9375 8.625 0.9375C12.8625 0.9375 16.3125 4.3875 16.3125 8.625C16.3125 12.8625 12.8625 16.3125 8.625 16.3125ZM8.625 2.0625C5.0025 2.0625 2.0625 5.01 2.0625 8.625C2.0625 12.24 5.0025 15.1875 8.625 15.1875C12.2475 15.1875 15.1875 12.24 15.1875 8.625C15.1875 5.01 12.2475 2.0625 8.625 2.0625Z" fill="#D9D9D9"/>
<path d="M16.4981 17.0606C16.3556 17.0606 16.2131 17.0081 16.1006 16.8956L14.6006 15.3956C14.3831 15.1781 14.3831 14.8181 14.6006 14.6006C14.8181 14.3831 15.1781 14.3831 15.3956 14.6006L16.8956 16.1006C17.1131 16.3181 17.1131 16.6781 16.8956 16.8956C16.7831 17.0081 16.6406 17.0606 16.4981 17.0606Z" fill="#D9D9D9"/>
</svg>
