<svg width="8" height="8" viewBox="0 0 8 8" fill="none" xmlns="http://www.w3.org/2000/svg">
<g clip-path="url(#clip0_1064_1745)">
<path d="M6.15559 7.50024C6.10297 7.50044 6.05163 7.48404 6.00887 7.45336L3.99934 5.99649L1.98981 7.45336C1.94688 7.4845 1.89516 7.50118 1.84212 7.50099C1.78909 7.5008 1.73749 7.48374 1.69478 7.45229C1.65208 7.42084 1.62048 7.37662 1.60456 7.32603C1.58864 7.27544 1.58922 7.2211 1.60622 7.17086L2.38997 4.84946L0.358718 3.45649C0.31472 3.42635 0.281512 3.38293 0.263948 3.33257C0.246383 3.28222 0.245382 3.22757 0.261091 3.1766C0.276799 3.12564 0.308394 3.08103 0.351259 3.0493C0.394124 3.01757 0.446012 3.00038 0.499343 3.00024H3.00528L3.76153 0.672895C3.77782 0.622648 3.80961 0.578853 3.85233 0.547792C3.89506 0.516731 3.94652 0.5 3.99934 0.5C4.05216 0.5 4.10363 0.516731 4.14635 0.547792C4.18908 0.578853 4.22086 0.622648 4.23716 0.672895L4.99341 3.00102H7.49934C7.55274 3.00099 7.60474 3.01807 7.64774 3.04973C7.69073 3.0814 7.72245 3.12601 7.73826 3.17701C7.75407 3.22801 7.75313 3.28274 7.73558 3.33317C7.71804 3.3836 7.6848 3.42709 7.64075 3.45727L5.60872 4.84946L6.392 7.17024C6.40469 7.20781 6.40826 7.24787 6.40241 7.28709C6.39657 7.32632 6.38147 7.36359 6.35838 7.39583C6.33528 7.42807 6.30485 7.45435 6.26959 7.47251C6.23433 7.49066 6.19525 7.50017 6.15559 7.50024Z" fill="#FFAD30"/>
</g>
<defs>
<clipPath id="clip0_1064_1745">
<rect width="8" height="8" fill="white"/>
</clipPath>
</defs>
</svg>
